<svg width="250" height="250" viewBox="0 0 250 250" fill="none" xmlns="http://www.w3.org/2000/svg">
<path fill-rule="evenodd" clip-rule="evenodd" d="M125 250C194.036 250 250 194.036 250 125C250 55.9644 194.036 0 125 0C55.9644 0 0 55.9644 0 125C0 194.036 55.9644 250 125 250ZM51.2097 115.299L51.9074 142.211H69.3501V132.197C75.2109 132.197 80.3274 131.112 84.6997 128.943C89.072 126.69 92.4675 123.602 94.8862 119.68C97.3049 115.758 98.5143 111.169 98.5143 105.912C98.5143 100.404 97.0724 95.6476 94.1885 91.6422C91.3977 87.6367 87.3975 84.5492 82.1879 82.3796C76.9784 80.1265 70.792 79 63.6289 79H42V96.5238H65.0243C68.8385 96.5238 71.8619 97.3583 74.0945 99.0272C76.4202 100.696 77.5831 102.991 77.5831 105.912C77.5831 108.749 76.4667 111.044 74.2341 112.796C72.0014 114.465 68.978 115.299 65.1639 115.299H51.2097ZM50.9307 168.622C52.8842 170.207 55.4425 171 58.6054 171H62.6521C65.9081 171 68.4664 170.207 70.3269 168.622C72.2805 167.036 73.2573 164.908 73.2573 162.238C73.2573 159.568 72.2805 157.44 70.3269 155.854C68.4664 154.269 65.9546 153.476 62.7917 153.476H58.6054C55.4425 153.476 52.8842 154.269 50.9307 155.854C49.0701 157.44 48.1398 159.568 48.1398 162.238C48.1398 164.825 49.0701 166.953 50.9307 168.622ZM144.514 171H114.286V79H144.514V92.7021H129.152V157.298H144.514V171ZM177.371 171V157.298H192.733V92.7021H177.371V79H207.6V171H177.371Z" fill="white"/>
</svg>
