<svg width="1153" height="250" viewBox="0 0 1153 250" fill="none" xmlns="http://www.w3.org/2000/svg">
<g clip-path="url(#clip0)">
<circle cx="125" cy="125" r="125" fill="#2678AC"/>
<path d="M114.286 171V79H144.514V92.7021H129.152V157.298H144.514V171H114.286Z" fill="white"/>
<path d="M177.371 171V157.298H192.733V92.7021H177.371V79H207.6V171H177.371Z" fill="white"/>
<path d="M51.9074 142.211L51.2097 115.299H65.1639C68.978 115.299 72.0014 114.465 74.2341 112.796C76.4667 111.044 77.5831 108.749 77.5831 105.912C77.5831 102.991 76.4202 100.696 74.0945 99.0272C71.8619 97.3583 68.8385 96.5238 65.0243 96.5238H42V79H63.6289C70.792 79 76.9784 80.1265 82.1879 82.3796C87.3975 84.5492 91.3977 87.6367 94.1885 91.6422C97.0724 95.6476 98.5143 100.404 98.5143 105.912C98.5143 111.169 97.3049 115.758 94.8862 119.68C92.4675 123.602 89.072 126.69 84.6997 128.943C80.3274 131.112 75.2109 132.197 69.3501 132.197V142.211H51.9074ZM58.6054 171C55.4425 171 52.8842 170.207 50.9307 168.622C49.0701 166.953 48.1398 164.825 48.1398 162.238C48.1398 159.568 49.0701 157.44 50.9307 155.854C52.8842 154.269 55.4425 153.476 58.6054 153.476H62.7917C65.9546 153.476 68.4664 154.269 70.3269 155.854C72.2805 157.44 73.2573 159.568 73.2573 162.238C73.2573 164.908 72.2805 167.036 70.3269 168.622C68.4664 170.207 65.9081 171 62.6521 171H58.6054Z" fill="white"/>
<path d="M348.82 162.169C358.977 162.169 365.554 157.739 368.91 151.341H369.447V160.871H387.523V114.516C387.523 98.1399 373.653 91.2493 358.35 91.2493C341.884 91.2493 331.056 99.1243 328.416 111.653L346.045 113.085C347.343 108.521 351.415 105.165 358.261 105.165C364.749 105.165 368.462 108.431 368.462 114.069V114.337C368.462 118.767 363.764 119.349 351.817 120.512C338.215 121.765 326 126.329 326 141.676C326 155.278 335.71 162.169 348.82 162.169ZM354.278 149.014C348.417 149.014 344.211 146.285 344.211 141.05C344.211 135.68 348.641 133.04 355.352 132.101C359.513 131.519 366.315 130.535 368.597 129.013V136.307C368.597 143.511 362.646 149.014 354.278 149.014Z" fill="#2678AC"/>
<path d="M446.385 131.609C446.429 140.826 440.12 145.658 433.275 145.658C426.071 145.658 421.417 140.602 421.373 132.504V92.1442H402.311V135.904C402.356 151.967 411.752 161.766 425.578 161.766C435.914 161.766 443.342 156.442 446.429 148.388H447.145V160.871H465.446V92.1442H446.385V131.609Z" fill="#2678AC"/>
<path d="M517.248 92.1442H504.317V75.6783H485.256V92.1442H475.86V106.462H485.256V142.258C485.167 155.726 494.339 162.393 508.165 161.811C513.087 161.632 516.577 160.648 518.501 160.021L515.503 145.837C514.564 146.016 512.55 146.464 510.76 146.464C506.957 146.464 504.317 145.032 504.317 139.752V106.462H517.248V92.1442Z" fill="#2678AC"/>
<path d="M559.979 162.214C580.83 162.214 593.806 147.94 593.806 126.776C593.806 105.478 580.83 91.2493 559.979 91.2493C539.128 91.2493 526.153 105.478 526.153 126.776C526.153 147.94 539.128 162.214 559.979 162.214ZM560.069 147.448C550.449 147.448 545.527 138.634 545.527 126.642C545.527 114.651 550.449 105.791 560.069 105.791C569.51 105.791 574.432 114.651 574.432 126.642C574.432 138.634 569.51 147.448 560.069 147.448Z" fill="#2678AC"/>
<path d="M649.02 115.68H607.229V130.803H649.02V115.68Z" fill="#2678AC"/>
<path d="M696.315 162.214C717.166 162.214 730.142 147.94 730.142 126.776C730.142 105.478 717.166 91.2493 696.315 91.2493C675.464 91.2493 662.488 105.478 662.488 126.776C662.488 147.94 675.464 162.214 696.315 162.214ZM696.405 147.448C686.785 147.448 681.863 138.634 681.863 126.642C681.863 114.651 686.785 105.791 696.405 105.791C705.846 105.791 710.768 114.651 710.768 126.642C710.768 138.634 705.846 147.448 696.405 147.448Z" fill="#2678AC"/>
<path d="M742.536 186.644H761.597V149.864H762.179C764.819 155.592 770.591 161.99 781.687 161.99C797.348 161.99 809.563 149.596 809.563 126.597C809.563 102.972 796.811 91.2493 781.732 91.2493C770.233 91.2493 764.729 98.0952 762.179 103.688H761.329V92.1442H742.536V186.644ZM761.194 126.508C761.194 114.248 766.385 106.418 775.647 106.418C785.088 106.418 790.099 114.606 790.099 126.508C790.099 138.499 784.998 146.822 775.647 146.822C766.474 146.822 761.194 138.768 761.194 126.508Z" fill="#2678AC"/>
<path d="M858.827 92.1442H845.895V75.6783H826.834V92.1442H817.438V106.462H826.834V142.258C826.745 155.726 835.917 162.393 849.743 161.811C854.665 161.632 858.155 160.648 860.079 160.021L857.081 145.837C856.142 146.016 854.128 146.464 852.339 146.464C848.535 146.464 845.895 145.032 845.895 139.752V106.462H858.827V92.1442Z" fill="#2678AC"/>
<path d="M871.243 160.871H890.304V92.1442H871.243V160.871ZM880.818 83.2848C886.501 83.2848 891.154 78.9446 891.154 73.62C891.154 68.3402 886.501 64 880.818 64C875.181 64 870.527 68.3402 870.527 73.62C870.527 78.9446 875.181 83.2848 880.818 83.2848Z" fill="#2678AC"/>
<path d="M936.626 162.214C957.477 162.214 970.452 147.94 970.452 126.776C970.452 105.478 957.477 91.2493 936.626 91.2493C915.775 91.2493 902.799 105.478 902.799 126.776C902.799 147.94 915.775 162.214 936.626 162.214ZM936.715 147.448C927.095 147.448 922.173 138.634 922.173 126.642C922.173 114.651 927.095 105.791 936.715 105.791C946.156 105.791 951.078 114.651 951.078 126.642C951.078 138.634 946.156 147.448 936.715 147.448Z" fill="#2678AC"/>
<path d="M1001.91 121.138C1001.95 112.279 1007.23 107.089 1014.93 107.089C1022.58 107.089 1027.19 112.1 1027.14 120.512V160.871H1046.2V117.112C1046.2 101.093 1036.81 91.2493 1022.49 91.2493C1012.29 91.2493 1004.91 96.2607 1001.82 104.27H1001.01V92.1442H982.847V160.871H1001.91V121.138Z" fill="#2678AC"/>
<path d="M1080.83 162.169C1090.98 162.169 1097.56 157.739 1100.92 151.341H1101.45V160.871H1119.53V114.516C1119.53 98.1399 1105.66 91.2493 1090.36 91.2493C1073.89 91.2493 1063.06 99.1243 1060.42 111.653L1078.05 113.085C1079.35 108.521 1083.42 105.165 1090.27 105.165C1096.75 105.165 1100.47 108.431 1100.47 114.069V114.337C1100.47 118.767 1095.77 119.349 1083.82 120.512C1070.22 121.765 1058.01 126.329 1058.01 141.676C1058.01 155.278 1067.72 162.169 1080.83 162.169ZM1086.28 149.014C1080.42 149.014 1076.22 146.285 1076.22 141.05C1076.22 135.68 1080.65 133.04 1087.36 132.101C1091.52 131.519 1098.32 130.535 1100.6 129.013V136.307C1100.6 143.511 1094.65 149.014 1086.28 149.014Z" fill="#2678AC"/>
<path d="M1153.38 69.2351H1134.32V160.871H1153.38V69.2351Z" fill="#2678AC"/>
</g>
<defs>
<clipPath id="clip0">
<rect width="1153" height="250" fill="white"/>
</clipPath>
</defs>
</svg>
